<svg xmlns="http://www.w3.org/2000/svg" viewBox="0 0 970.99 1254.99"><defs><style>.cls-1{fill:#fff;}.cls-2{fill:none;stroke:#fff;stroke-miterlimit:10;}</style></defs><title>Asset 1</title><g id="Layer_2" data-name="Layer 2"><g id="Layer_1-2" data-name="Layer 1"><rect class="cls-1" x="1.4" y="740.16" width="38.12" height="38.12" rx="10" ry="10"/><rect class="cls-1" x="50.3" y="740.16" width="38.12" height="38.12" rx="10" ry="10"/><rect class="cls-1" x="99.2" y="740.16" width="38.12" height="38.12" rx="10" ry="10"/><rect class="cls-1" x="148.1" y="740.16" width="38.12" height="38.12" rx="10" ry="10"/><rect class="cls-1" x="197" y="740.16" width="38.12" height="38.12" rx="10" ry="10"/><rect class="cls-1" x="245.9" y="740.16" width="38.12" height="38.12" rx="10" ry="10"/><rect class="cls-1" x="294.8" y="740.16" width="38.12" height="38.12" rx="10" ry="10"/><rect class="cls-1" x="343.7" y="740.16" width="38.12" height="38.12" rx="10" ry="10"/><rect class="cls-1" x="392.6" y="740.16" width="38.12" height="38.12" rx="10" ry="10"/><rect class="cls-1" x="441.5" y="740.16" width="38.12" height="38.12" rx="10" ry="10"/><rect class="cls-1" x="1.4" y="793.13" width="38.12" height="38.12" rx="10" ry="10"/><rect class="cls-1" x="50.3" y="793.13" width="38.12" height="38.12" rx="10" ry="10"/><rect class="cls-1" x="99.2" y="793.13" width="38.12" height="38.12" rx="10" ry="10"/><rect class="cls-1" x="148.1" y="793.13" width="38.12" height="38.12" rx="10" ry="10"/><rect class="cls-1" x="197" y="793.13" width="38.12" height="38.12" rx="10" ry="10"/><rect class="cls-1" x="245.9" y="793.13" width="38.12" height="38.12" rx="10" ry="10"/><rect class="cls-1" x="294.8" y="793.13" width="38.12" height="38.12" rx="10" ry="10"/><rect class="cls-1" x="343.7" y="793.13" width="38.12" height="38.12" rx="10" ry="10"/><rect class="cls-1" x="392.6" y="793.13" width="38.12" height="38.12" rx="10" ry="10"/><rect class="cls-1" x="441.5" y="793.13" width="38.12" height="38.12" rx="10" ry="10"/><rect class="cls-1" x="1.4" y="846.1" width="38.12" height="38.12" rx="10" ry="10"/><rect class="cls-1" x="50.3" y="846.1" width="38.12" height="38.12" rx="10" ry="10"/><rect class="cls-1" x="99.2" y="846.1" width="38.12" height="38.12" rx="10" ry="10"/><rect class="cls-1" x="148.1" y="846.1" width="38.12" height="38.12" rx="10" ry="10"/><rect class="cls-1" x="197" y="846.1" width="38.12" height="38.12" rx="10" ry="10"/><rect class="cls-1" x="245.9" y="846.1" width="38.12" height="38.12" rx="10" ry="10"/><rect class="cls-1" x="294.8" y="846.1" width="38.12" height="38.12" rx="10" ry="10"/><rect class="cls-1" x="343.7" y="846.1" width="38.12" height="38.12" rx="10" ry="10"/><rect class="cls-1" x="392.6" y="846.1" width="38.12" height="38.12" rx="10" ry="10"/><rect class="cls-1" x="441.5" y="846.1" width="38.12" height="38.12" rx="10" ry="10"/><rect class="cls-1" x="1.4" y="899.07" width="38.12" height="38.12" rx="10" ry="10"/><rect class="cls-1" x="50.3" y="899.07" width="38.12" height="38.12" rx="10" ry="10"/><rect class="cls-1" x="99.2" y="899.07" width="38.12" height="38.12" rx="10" ry="10"/><rect class="cls-1" x="148.1" y="899.07" width="38.12" height="38.12" rx="10" ry="10"/><rect class="cls-1" x="197" y="899.07" width="38.12" height="38.12" rx="10" ry="10"/><rect class="cls-1" x="245.9" y="899.07" width="38.12" height="38.12" rx="10" ry="10"/><rect class="cls-1" x="294.8" y="899.07" width="38.12" height="38.12" rx="10" ry="10"/><rect class="cls-1" x="343.7" y="899.07" width="38.12" height="38.12" rx="10" ry="10"/><rect class="cls-1" x="392.6" y="899.07" width="38.12" height="38.12" rx="10" ry="10"/><rect class="cls-1" x="441.5" y="899.07" width="38.12" height="38.12" rx="10" ry="10"/><rect class="cls-1" x="1.4" y="952.03" width="38.12" height="38.12" rx="10" ry="10"/><rect class="cls-1" x="50.3" y="952.03" width="38.12" height="38.12" rx="10" ry="10"/><rect class="cls-1" x="99.2" y="952.03" width="38.12" height="38.12" rx="10" ry="10"/><rect class="cls-1" x="148.1" y="952.03" width="38.12" height="38.12" rx="10" ry="10"/><rect class="cls-1" x="197" y="952.03" width="38.12" height="38.12" rx="10" ry="10"/><rect class="cls-1" x="245.9" y="952.03" width="38.12" height="38.12" rx="10" ry="10"/><rect class="cls-1" x="294.8" y="952.03" width="38.12" height="38.12" rx="10" ry="10"/><rect class="cls-1" x="343.7" y="952.03" width="38.12" height="38.12" rx="10" ry="10"/><rect class="cls-1" x="392.6" y="952.03" width="38.12" height="38.12" rx="10" ry="10"/><rect class="cls-1" x="441.5" y="952.03" width="38.12" height="38.12" rx="10" ry="10"/><rect class="cls-1" x="1.4" y="1005" width="38.12" height="38.12" rx="10" ry="10"/><rect class="cls-1" x="50.3" y="1005" width="38.12" height="38.12" rx="10" ry="10"/><rect class="cls-1" x="99.2" y="1005" width="38.12" height="38.12" rx="10" ry="10"/><rect class="cls-1" x="148.1" y="1005" width="38.12" height="38.12" rx="10" ry="10"/><rect class="cls-1" x="197" y="1005" width="38.12" height="38.12" rx="10" ry="10"/><rect class="cls-1" x="245.9" y="1005" width="38.12" height="38.12" rx="10" ry="10"/><rect class="cls-1" x="294.8" y="1005" width="38.12" height="38.12" rx="10" ry="10"/><rect class="cls-1" x="343.7" y="1005" width="38.12" height="38.12" rx="10" ry="10"/><rect class="cls-1" x="392.6" y="1005" width="38.12" height="38.12" rx="10" ry="10"/><rect class="cls-1" x="441.5" y="1005" width="38.12" height="38.12" rx="10" ry="10"/><rect class="cls-1" x="1.4" y="1057.97" width="38.12" height="38.12" rx="10" ry="10"/><rect class="cls-1" x="50.3" y="1057.97" width="38.12" height="38.12" rx="10" ry="10"/><rect class="cls-1" x="99.2" y="1057.97" width="38.12" height="38.12" rx="10" ry="10"/><rect class="cls-1" x="148.1" y="1057.97" width="38.12" height="38.12" rx="10" ry="10"/><rect class="cls-1" x="197" y="1057.97" width="38.12" height="38.12" rx="10" ry="10"/><rect class="cls-1" x="245.9" y="1057.97" width="38.12" height="38.12" rx="10" ry="10"/><rect class="cls-1" x="294.8" y="1057.97" width="38.12" height="38.12" rx="10" ry="10"/><rect class="cls-1" x="343.7" y="1057.97" width="38.12" height="38.12" rx="10" ry="10"/><rect class="cls-1" x="392.6" y="1057.97" width="38.12" height="38.12" rx="10" ry="10"/><rect class="cls-1" x="441.5" y="1057.97" width="38.12" height="38.12" rx="10" ry="10"/><rect class="cls-1" x="1.4" y="1110.94" width="38.12" height="38.12" rx="10" ry="10"/><rect class="cls-1" x="50.3" y="1110.94" width="38.12" height="38.12" rx="10" ry="10"/><rect class="cls-1" x="99.2" y="1110.94" width="38.12" height="38.12" rx="10" ry="10"/><rect class="cls-1" x="148.1" y="1110.94" width="38.12" height="38.12" rx="10" ry="10"/><rect class="cls-1" x="197" y="1110.94" width="38.12" height="38.12" rx="10" ry="10"/><rect class="cls-1" x="245.9" y="1110.94" width="38.12" height="38.12" rx="10" ry="10"/><rect class="cls-1" x="294.8" y="1110.94" width="38.12" height="38.12" rx="10" ry="10"/><rect class="cls-1" x="343.7" y="1110.94" width="38.12" height="38.12" rx="10" ry="10"/><rect class="cls-1" x="392.6" y="1110.94" width="38.12" height="38.12" rx="10" ry="10"/><rect class="cls-1" x="441.5" y="1110.94" width="38.12" height="38.12" rx="10" ry="10"/><rect class="cls-1" x="1.4" y="1163.9" width="38.12" height="38.12" rx="10" ry="10"/><rect class="cls-1" x="50.3" y="1163.9" width="38.12" height="38.12" rx="10" ry="10"/><rect class="cls-1" x="99.2" y="1163.9" width="38.12" height="38.12" rx="10" ry="10"/><rect class="cls-1" x="148.1" y="1163.9" width="38.12" height="38.12" rx="10" ry="10"/><rect class="cls-1" x="197" y="1163.9" width="38.12" height="38.12" rx="10" ry="10"/><rect class="cls-1" x="245.9" y="1163.9" width="38.12" height="38.12" rx="10" ry="10"/><rect class="cls-1" x="294.8" y="1163.9" width="38.12" height="38.12" rx="10" ry="10"/><rect class="cls-1" x="343.7" y="1163.9" width="38.12" height="38.12" rx="10" ry="10"/><rect class="cls-1" x="392.6" y="1163.9" width="38.12" height="38.12" rx="10" ry="10"/><rect class="cls-1" x="441.5" y="1163.9" width="38.12" height="38.12" rx="10" ry="10"/><rect class="cls-1" x="1.4" y="1216.87" width="38.12" height="38.12" rx="10" ry="10"/><rect class="cls-1" x="50.3" y="1216.87" width="38.12" height="38.12" rx="10" ry="10"/><rect class="cls-1" x="99.2" y="1216.87" width="38.12" height="38.12" rx="10" ry="10"/><rect class="cls-1" x="148.1" y="1216.87" width="38.12" height="38.12" rx="10" ry="10"/><rect class="cls-1" x="197" y="1216.87" width="38.12" height="38.12" rx="10" ry="10"/><rect class="cls-1" x="245.9" y="1216.87" width="38.12" height="38.12" rx="10" ry="10"/><rect class="cls-1" x="294.8" y="1216.87" width="38.12" height="38.12" rx="10" ry="10"/><rect class="cls-1" x="343.7" y="1216.87" width="38.12" height="38.12" rx="10" ry="10"/><rect class="cls-1" x="392.6" y="1216.87" width="38.12" height="38.12" rx="10" ry="10"/><rect class="cls-1" x="441.5" y="1216.87" width="38.12" height="38.12" rx="10" ry="10"/><rect class="cls-1" x="492.27" y="740.16" width="38.12" height="38.12" rx="10" ry="10"/><rect class="cls-1" x="541.17" y="740.16" width="38.12" height="38.12" rx="10" ry="10"/><rect class="cls-1" x="590.07" y="740.16" width="38.12" height="38.12" rx="10" ry="10"/><rect class="cls-1" x="638.97" y="740.16" width="38.12" height="38.12" rx="10" ry="10"/><rect class="cls-1" x="687.87" y="740.16" width="38.12" height="38.12" rx="10" ry="10"/><rect class="cls-1" x="736.77" y="740.16" width="38.12" height="38.12" rx="10" ry="10"/><rect class="cls-1" x="785.67" y="740.16" width="38.12" height="38.12" rx="10" ry="10"/><rect class="cls-1" x="834.57" y="740.16" width="38.12" height="38.12" rx="10" ry="10"/><rect class="cls-1" x="883.47" y="740.16" width="38.12" height="38.12" rx="10" ry="10"/><rect class="cls-1" x="932.37" y="740.16" width="38.12" height="38.12" rx="10" ry="10"/><rect class="cls-1" x="492.27" y="793.13" width="38.12" height="38.12" rx="10" ry="10"/><rect class="cls-1" x="541.17" y="793.13" width="38.12" height="38.12" rx="10" ry="10"/><rect class="cls-1" x="590.07" y="793.13" width="38.12" height="38.12" rx="10" ry="10"/><rect class="cls-1" x="638.97" y="793.13" width="38.12" height="38.12" rx="10" ry="10"/><rect class="cls-1" x="687.87" y="793.13" width="38.12" height="38.12" rx="10" ry="10"/><rect class="cls-1" x="736.77" y="793.13" width="38.12" height="38.12" rx="10" ry="10"/><rect class="cls-1" x="785.67" y="793.13" width="38.12" height="38.12" rx="10" ry="10"/><rect class="cls-1" x="834.57" y="793.13" width="38.12" height="38.12" rx="10" ry="10"/><rect class="cls-1" x="883.47" y="793.13" width="38.12" height="38.12" rx="10" ry="10"/><rect class="cls-1" x="932.37" y="793.13" width="38.12" height="38.12" rx="10" ry="10"/><rect class="cls-1" x="492.27" y="846.1" width="38.12" height="38.12" rx="10" ry="10"/><rect class="cls-1" x="541.17" y="846.1" width="38.12" height="38.12" rx="10" ry="10"/><rect class="cls-1" x="590.07" y="846.1" width="38.12" height="38.12" rx="10" ry="10"/><rect class="cls-1" x="638.97" y="846.1" width="38.12" height="38.12" rx="10" ry="10"/><rect class="cls-1" x="687.87" y="846.1" width="38.12" height="38.12" rx="10" ry="10"/><rect class="cls-1" x="736.77" y="846.1" width="38.12" height="38.12" rx="10" ry="10"/><rect class="cls-1" x="785.67" y="846.1" width="38.12" height="38.12" rx="10" ry="10"/><rect class="cls-1" x="834.57" y="846.1" width="38.12" height="38.12" rx="10" ry="10"/><rect class="cls-1" x="883.47" y="846.1" width="38.12" height="38.12" rx="10" ry="10"/><rect class="cls-1" x="932.37" y="846.1" width="38.12" height="38.12" rx="10" ry="10"/><rect class="cls-1" x="492.27" y="899.07" width="38.12" height="38.12" rx="10" ry="10"/><rect class="cls-1" x="541.17" y="899.07" width="38.12" height="38.12" rx="10" ry="10"/><rect class="cls-1" x="590.07" y="899.07" width="38.12" height="38.12" rx="10" ry="10"/><rect class="cls-1" x="638.97" y="899.07" width="38.12" height="38.12" rx="10" ry="10"/><rect class="cls-1" x="687.87" y="899.07" width="38.12" height="38.12" rx="10" ry="10"/><rect class="cls-1" x="736.77" y="899.07" width="38.12" height="38.12" rx="10" ry="10"/><rect class="cls-1" x="785.67" y="899.07" width="38.12" height="38.12" rx="10" ry="10"/><rect class="cls-1" x="834.57" y="899.07" width="38.12" height="38.12" rx="10" ry="10"/><rect class="cls-1" x="883.47" y="899.07" width="38.12" height="38.12" rx="10" ry="10"/><rect class="cls-1" x="932.37" y="899.07" width="38.12" height="38.12" rx="10" ry="10"/><rect class="cls-1" x="492.27" y="952.03" width="38.12" height="38.12" rx="10" ry="10"/><rect class="cls-1" x="541.17" y="952.03" width="38.12" height="38.12" rx="10" ry="10"/><rect class="cls-1" x="590.07" y="952.03" width="38.12" height="38.12" rx="10" ry="10"/><rect class="cls-1" x="638.97" y="952.03" width="38.12" height="38.12" rx="10" ry="10"/><rect class="cls-1" x="687.87" y="952.03" width="38.12" height="38.12" rx="10" ry="10"/><rect class="cls-1" x="736.77" y="952.03" width="38.12" height="38.12" rx="10" ry="10"/><rect class="cls-1" x="785.67" y="952.03" width="38.12" height="38.12" rx="10" ry="10"/><rect class="cls-1" x="834.57" y="952.03" width="38.12" height="38.12" rx="10" ry="10"/><rect class="cls-1" x="883.47" y="952.03" width="38.12" height="38.12" rx="10" ry="10"/><rect class="cls-1" x="932.37" y="952.03" width="38.12" height="38.12" rx="10" ry="10"/><rect class="cls-1" x="492.27" y="1005" width="38.12" height="38.12" rx="10" ry="10"/><rect class="cls-1" x="541.17" y="1005" width="38.12" height="38.12" rx="10" ry="10"/><rect class="cls-1" x="590.07" y="1005" width="38.12" height="38.12" rx="10" ry="10"/><rect class="cls-1" x="638.97" y="1005" width="38.12" height="38.12" rx="10" ry="10"/><rect class="cls-1" x="687.87" y="1005" width="38.12" height="38.12" rx="10" ry="10"/><rect class="cls-1" x="736.77" y="1005" width="38.12" height="38.12" rx="10" ry="10"/><rect class="cls-1" x="785.67" y="1005" width="38.12" height="38.12" rx="10" ry="10"/><rect class="cls-1" x="834.57" y="1005" width="38.12" height="38.12" rx="10" ry="10"/><rect class="cls-1" x="883.47" y="1005" width="38.12" height="38.12" rx="10" ry="10"/><rect class="cls-1" x="932.37" y="1005" width="38.12" height="38.12" rx="10" ry="10"/><rect class="cls-1" x="492.27" y="1057.97" width="38.12" height="38.12" rx="10" ry="10"/><rect class="cls-1" x="541.17" y="1057.97" width="38.12" height="38.12" rx="10" ry="10"/><rect class="cls-1" x="590.07" y="1057.97" width="38.12" height="38.12" rx="10" ry="10"/><rect class="cls-1" x="638.97" y="1057.97" width="38.12" height="38.12" rx="10" ry="10"/><rect class="cls-1" x="687.87" y="1057.97" width="38.12" height="38.12" rx="10" ry="10"/><rect class="cls-1" x="736.77" y="1057.97" width="38.12" height="38.12" rx="10" ry="10"/><rect class="cls-1" x="785.67" y="1057.97" width="38.12" height="38.12" rx="10" ry="10"/><rect class="cls-1" x="834.57" y="1057.97" width="38.12" height="38.12" rx="10" ry="10"/><rect class="cls-1" x="883.47" y="1057.97" width="38.12" height="38.12" rx="10" ry="10"/><rect class="cls-1" x="932.37" y="1057.97" width="38.12" height="38.12" rx="10" ry="10"/><rect class="cls-1" x="492.27" y="1110.94" width="38.12" height="38.12" rx="10" ry="10"/><rect class="cls-1" x="541.17" y="1110.94" width="38.12" height="38.12" rx="10" ry="10"/><rect class="cls-1" x="590.07" y="1110.94" width="38.12" height="38.12" rx="10" ry="10"/><rect class="cls-1" x="638.97" y="1110.94" width="38.12" height="38.12" rx="10" ry="10"/><rect class="cls-1" x="687.87" y="1110.94" width="38.12" height="38.12" rx="10" ry="10"/><rect class="cls-1" x="736.77" y="1110.94" width="38.12" height="38.12" rx="10" ry="10"/><rect class="cls-1" x="785.67" y="1110.94" width="38.12" height="38.12" rx="10" ry="10"/><rect class="cls-1" x="834.57" y="1110.94" width="38.12" height="38.12" rx="10" ry="10"/><rect class="cls-1" x="883.47" y="1110.94" width="38.12" height="38.12" rx="10" ry="10"/><rect class="cls-1" x="932.37" y="1110.94" width="38.12" height="38.12" rx="10" ry="10"/><rect class="cls-1" x="492.27" y="1163.9" width="38.12" height="38.12" rx="10" ry="10"/><rect class="cls-1" x="541.17" y="1163.9" width="38.12" height="38.12" rx="10" ry="10"/><rect class="cls-1" x="590.07" y="1163.9" width="38.12" height="38.12" rx="10" ry="10"/><rect class="cls-1" x="638.97" y="1163.9" width="38.12" height="38.12" rx="10" ry="10"/><rect class="cls-1" x="687.87" y="1163.9" width="38.12" height="38.12" rx="10" ry="10"/><rect class="cls-1" x="736.77" y="1163.9" width="38.12" height="38.12" rx="10" ry="10"/><rect class="cls-1" x="785.67" y="1163.9" width="38.12" height="38.12" rx="10" ry="10"/><rect class="cls-1" x="834.57" y="1163.9" width="38.12" height="38.12" rx="10" ry="10"/><rect class="cls-1" x="883.47" y="1163.9" width="38.12" height="38.12" rx="10" ry="10"/><rect class="cls-1" x="932.37" y="1163.9" width="38.12" height="38.12" rx="10" ry="10"/><rect class="cls-1" x="492.27" y="1216.87" width="38.12" height="38.12" rx="10" ry="10"/><rect class="cls-1" x="541.17" y="1216.87" width="38.12" height="38.12" rx="10" ry="10"/><rect class="cls-1" x="590.07" y="1216.87" width="38.12" height="38.12" rx="10" ry="10"/><rect class="cls-1" x="638.97" y="1216.87" width="38.12" height="38.12" rx="10" ry="10"/><rect class="cls-1" x="687.87" y="1216.87" width="38.12" height="38.12" rx="10" ry="10"/><rect class="cls-1" x="736.77" y="1216.87" width="38.12" height="38.12" rx="10" ry="10"/><rect class="cls-1" x="785.67" y="1216.87" width="38.12" height="38.12" rx="10" ry="10"/><rect class="cls-1" x="834.57" y="1216.87" width="38.12" height="38.12" rx="10" ry="10"/><rect class="cls-1" x="883.47" y="1216.87" width="38.12" height="38.12" rx="10" ry="10"/><rect class="cls-1" x="932.37" y="1216.87" width="38.12" height="38.12" rx="10" ry="10"/><rect class="cls-2" x="1.4" y="211.43" width="38.12" height="38.12" rx="10" ry="10"/><rect class="cls-2" x="50.3" y="211.43" width="38.12" height="38.12" rx="10" ry="10"/><rect class="cls-2" x="99.2" y="211.43" width="38.12" height="38.12" rx="10" ry="10"/><rect class="cls-2" x="148.1" y="211.43" width="38.12" height="38.12" rx="10" ry="10"/><rect class="cls-2" x="197" y="211.43" width="38.12" height="38.12" rx="10" ry="10"/><rect class="cls-2" x="245.9" y="211.43" width="38.12" height="38.12" rx="10" ry="10"/><rect class="cls-2" x="294.8" y="211.43" width="38.12" height="38.12" rx="10" ry="10"/><rect class="cls-2" x="343.7" y="211.43" width="38.12" height="38.12" rx="10" ry="10"/><rect class="cls-2" x="392.6" y="211.43" width="38.12" height="38.12" rx="10" ry="10"/><rect class="cls-2" x="441.5" y="211.43" width="38.12" height="38.12" rx="10" ry="10"/><rect class="cls-2" x="1.4" y="264.4" width="38.12" height="38.12" rx="10" ry="10"/><rect class="cls-2" x="50.3" y="264.4" width="38.12" height="38.12" rx="10" ry="10"/><rect class="cls-2" x="99.2" y="264.4" width="38.12" height="38.12" rx="10" ry="10"/><rect class="cls-2" x="148.1" y="264.4" width="38.12" height="38.12" rx="10" ry="10"/><rect class="cls-2" x="197" y="264.4" width="38.12" height="38.12" rx="10" ry="10"/><rect class="cls-2" x="245.9" y="264.4" width="38.12" height="38.12" rx="10" ry="10"/><rect class="cls-2" x="294.8" y="264.4" width="38.12" height="38.12" rx="10" ry="10"/><rect class="cls-2" x="343.7" y="264.4" width="38.12" height="38.12" rx="10" ry="10"/><rect class="cls-2" x="392.6" y="264.4" width="38.12" height="38.12" rx="10" ry="10"/><rect class="cls-2" x="441.5" y="264.4" width="38.12" height="38.12" rx="10" ry="10"/><rect class="cls-2" x="1.4" y="317.36" width="38.12" height="38.12" rx="10" ry="10"/><rect class="cls-2" x="50.3" y="317.36" width="38.12" height="38.12" rx="10" ry="10"/><rect class="cls-2" x="99.2" y="317.36" width="38.12" height="38.12" rx="10" ry="10"/><rect class="cls-2" x="148.1" y="317.36" width="38.12" height="38.12" rx="10" ry="10"/><rect class="cls-2" x="197" y="317.36" width="38.12" height="38.12" rx="10" ry="10"/><rect class="cls-2" x="245.9" y="317.36" width="38.12" height="38.12" rx="10" ry="10"/><rect class="cls-2" x="294.8" y="317.36" width="38.12" height="38.12" rx="10" ry="10"/><rect class="cls-2" x="343.7" y="317.36" width="38.12" height="38.12" rx="10" ry="10"/><rect class="cls-2" x="392.6" y="317.36" width="38.12" height="38.12" rx="10" ry="10"/><rect class="cls-2" x="441.5" y="317.36" width="38.12" height="38.12" rx="10" ry="10"/><rect class="cls-2" x="1.4" y="370.33" width="38.12" height="38.12" rx="10" ry="10"/><rect class="cls-2" x="50.3" y="370.33" width="38.12" height="38.12" rx="10" ry="10"/><rect class="cls-2" x="99.2" y="370.33" width="38.12" height="38.12" rx="10" ry="10"/><rect class="cls-2" x="148.1" y="370.33" width="38.12" height="38.12" rx="10" ry="10"/><rect class="cls-2" x="197" y="370.33" width="38.12" height="38.12" rx="10" ry="10"/><rect class="cls-2" x="245.9" y="370.33" width="38.12" height="38.12" rx="10" ry="10"/><rect class="cls-2" x="294.8" y="370.33" width="38.12" height="38.12" rx="10" ry="10"/><rect class="cls-2" x="343.7" y="370.33" width="38.12" height="38.12" rx="10" ry="10"/><rect class="cls-2" x="392.6" y="370.33" width="38.12" height="38.12" rx="10" ry="10"/><rect class="cls-2" x="441.5" y="370.33" width="38.12" height="38.12" rx="10" ry="10"/><rect class="cls-2" x="1.4" y="423.3" width="38.12" height="38.12" rx="10" ry="10"/><rect class="cls-2" x="50.3" y="423.3" width="38.12" height="38.12" rx="10" ry="10"/><rect class="cls-2" x="99.2" y="423.3" width="38.12" height="38.12" rx="10" ry="10"/><rect class="cls-2" x="148.1" y="423.3" width="38.12" height="38.12" rx="10" ry="10"/><rect class="cls-2" x="197" y="423.3" width="38.12" height="38.12" rx="10" ry="10"/><rect class="cls-2" x="245.9" y="423.3" width="38.12" height="38.12" rx="10" ry="10"/><rect class="cls-2" x="294.8" y="423.3" width="38.12" height="38.12" rx="10" ry="10"/><rect class="cls-2" x="343.7" y="423.3" width="38.12" height="38.12" rx="10" ry="10"/><rect class="cls-2" x="392.6" y="423.3" width="38.12" height="38.12" rx="10" ry="10"/><rect class="cls-2" x="441.5" y="423.3" width="38.12" height="38.12" rx="10" ry="10"/><rect class="cls-2" x="1.4" y="476.27" width="38.12" height="38.12" rx="10" ry="10"/><rect class="cls-1" x="50.3" y="476.27" width="38.12" height="38.12" rx="10" ry="10"/><rect class="cls-1" x="99.2" y="476.27" width="38.12" height="38.12" rx="10" ry="10"/><rect class="cls-1" x="148.1" y="476.27" width="38.12" height="38.12" rx="10" ry="10"/><rect class="cls-1" x="197" y="476.27" width="38.12" height="38.12" rx="10" ry="10"/><rect class="cls-1" x="245.9" y="476.27" width="38.12" height="38.12" rx="10" ry="10"/><rect class="cls-1" x="294.8" y="476.27" width="38.12" height="38.12" rx="10" ry="10"/><rect class="cls-1" x="343.7" y="476.27" width="38.12" height="38.12" rx="10" ry="10"/><rect class="cls-1" x="392.6" y="476.27" width="38.12" height="38.12" rx="10" ry="10"/><rect class="cls-1" x="441.5" y="476.27" width="38.12" height="38.12" rx="10" ry="10"/><rect class="cls-1" x="1.4" y="529.23" width="38.12" height="38.12" rx="10" ry="10"/><rect class="cls-1" x="50.3" y="529.23" width="38.12" height="38.12" rx="10" ry="10"/><rect class="cls-1" x="99.2" y="529.23" width="38.12" height="38.12" rx="10" ry="10"/><rect class="cls-1" x="148.1" y="529.23" width="38.12" height="38.12" rx="10" ry="10"/><rect class="cls-1" x="197" y="529.23" width="38.12" height="38.12" rx="10" ry="10"/><rect class="cls-1" x="245.9" y="529.23" width="38.12" height="38.12" rx="10" ry="10"/><rect class="cls-1" x="294.8" y="529.23" width="38.12" height="38.12" rx="10" ry="10"/><rect class="cls-1" x="343.7" y="529.23" width="38.12" height="38.12" rx="10" ry="10"/><rect class="cls-1" x="392.6" y="529.23" width="38.12" height="38.12" rx="10" ry="10"/><rect class="cls-1" x="441.5" y="529.23" width="38.12" height="38.12" rx="10" ry="10"/><rect class="cls-1" x="1.4" y="582.2" width="38.12" height="38.12" rx="10" ry="10"/><rect class="cls-1" x="50.3" y="582.2" width="38.12" height="38.12" rx="10" ry="10"/><rect class="cls-1" x="99.2" y="582.2" width="38.12" height="38.12" rx="10" ry="10"/><rect class="cls-1" x="148.1" y="582.2" width="38.12" height="38.12" rx="10" ry="10"/><rect class="cls-1" x="197" y="582.2" width="38.12" height="38.12" rx="10" ry="10"/><rect class="cls-1" x="245.9" y="582.2" width="38.12" height="38.12" rx="10" ry="10"/><rect class="cls-1" x="294.8" y="582.2" width="38.12" height="38.12" rx="10" ry="10"/><rect class="cls-1" x="343.7" y="582.2" width="38.12" height="38.12" rx="10" ry="10"/><rect class="cls-1" x="392.6" y="582.2" width="38.12" height="38.12" rx="10" ry="10"/><rect class="cls-1" x="441.5" y="582.2" width="38.12" height="38.12" rx="10" ry="10"/><rect class="cls-1" x="1.4" y="635.17" width="38.12" height="38.12" rx="10" ry="10"/><rect class="cls-1" x="50.3" y="635.17" width="38.12" height="38.12" rx="10" ry="10"/><rect class="cls-1" x="99.2" y="635.17" width="38.12" height="38.12" rx="10" ry="10"/><rect class="cls-1" x="148.1" y="635.17" width="38.12" height="38.12" rx="10" ry="10"/><rect class="cls-1" x="197" y="635.17" width="38.12" height="38.12" rx="10" ry="10"/><rect class="cls-1" x="245.9" y="635.17" width="38.12" height="38.12" rx="10" ry="10"/><rect class="cls-1" x="294.8" y="635.17" width="38.12" height="38.12" rx="10" ry="10"/><rect class="cls-1" x="343.7" y="635.17" width="38.12" height="38.12" rx="10" ry="10"/><rect class="cls-1" x="392.6" y="635.17" width="38.12" height="38.12" rx="10" ry="10"/><rect class="cls-1" x="441.5" y="635.17" width="38.12" height="38.12" rx="10" ry="10"/><rect class="cls-1" x="1.4" y="688.14" width="38.12" height="38.12" rx="10" ry="10"/><rect class="cls-1" x="50.3" y="688.14" width="38.12" height="38.12" rx="10" ry="10"/><rect class="cls-1" x="99.2" y="688.14" width="38.12" height="38.12" rx="10" ry="10"/><rect class="cls-1" x="148.1" y="688.14" width="38.12" height="38.12" rx="10" ry="10"/><rect class="cls-1" x="197" y="688.14" width="38.12" height="38.12" rx="10" ry="10"/><rect class="cls-1" x="245.9" y="688.14" width="38.12" height="38.12" rx="10" ry="10"/><rect class="cls-1" x="294.8" y="688.14" width="38.12" height="38.12" rx="10" ry="10"/><rect class="cls-1" x="343.7" y="688.14" width="38.12" height="38.12" rx="10" ry="10"/><rect class="cls-1" x="392.6" y="688.14" width="38.12" height="38.12" rx="10" ry="10"/><rect class="cls-1" x="441.5" y="688.14" width="38.12" height="38.12" rx="10" ry="10"/><rect class="cls-2" x="492.27" y="0.5" width="38.12" height="38.12" rx="10" ry="10"/><rect class="cls-2" x="541.17" y="0.5" width="38.12" height="38.12" rx="10" ry="10"/><rect class="cls-2" x="590.07" y="0.5" width="38.12" height="38.12" rx="10" ry="10"/><rect class="cls-2" x="638.97" y="0.5" width="38.12" height="38.12" rx="10" ry="10"/><rect class="cls-2" x="687.87" y="0.5" width="38.12" height="38.12" rx="10" ry="10"/><rect class="cls-2" x="736.77" y="0.5" width="38.12" height="38.12" rx="10" ry="10"/><rect class="cls-2" x="785.67" y="0.5" width="38.12" height="38.12" rx="10" ry="10"/><rect class="cls-2" x="834.57" y="0.5" width="38.12" height="38.12" rx="10" ry="10"/><rect class="cls-2" x="883.47" y="0.5" width="38.12" height="38.12" rx="10" ry="10"/><rect class="cls-2" x="932.37" y="0.5" width="38.12" height="38.12" rx="10" ry="10"/><rect class="cls-2" x="492.27" y="53.47" width="38.12" height="38.12" rx="10" ry="10"/><rect class="cls-2" x="541.17" y="53.47" width="38.12" height="38.12" rx="10" ry="10"/><rect class="cls-2" x="590.07" y="53.47" width="38.12" height="38.12" rx="10" ry="10"/><rect class="cls-2" x="638.97" y="53.47" width="38.12" height="38.12" rx="10" ry="10"/><rect class="cls-2" x="687.87" y="53.47" width="38.12" height="38.12" rx="10" ry="10"/><rect class="cls-2" x="736.77" y="53.47" width="38.12" height="38.12" rx="10" ry="10"/><rect class="cls-2" x="785.67" y="53.47" width="38.12" height="38.12" rx="10" ry="10"/><rect class="cls-2" x="834.57" y="53.47" width="38.12" height="38.12" rx="10" ry="10"/><rect class="cls-2" x="883.47" y="53.47" width="38.12" height="38.12" rx="10" ry="10"/><rect class="cls-2" x="932.37" y="53.47" width="38.12" height="38.12" rx="10" ry="10"/><rect class="cls-2" x="147.2" y="0.5" width="38.12" height="38.12" rx="10" ry="10"/><rect class="cls-2" x="196.1" y="0.5" width="38.12" height="38.12" rx="10" ry="10"/><rect class="cls-2" x="245" y="0.5" width="38.12" height="38.12" rx="10" ry="10"/><rect class="cls-2" x="293.9" y="0.5" width="38.12" height="38.12" rx="10" ry="10"/><rect class="cls-2" x="342.8" y="0.5" width="38.12" height="38.12" rx="10" ry="10"/><rect class="cls-2" x="391.7" y="0.5" width="38.12" height="38.12" rx="10" ry="10"/><rect class="cls-2" x="440.6" y="0.5" width="38.12" height="38.12" rx="10" ry="10"/><rect class="cls-2" x="0.5" y="106.44" width="38.12" height="38.12" rx="10" ry="10"/><rect class="cls-2" x="49.4" y="106.44" width="38.12" height="38.12" rx="10" ry="10"/><rect class="cls-2" x="98.3" y="106.44" width="38.12" height="38.12" rx="10" ry="10"/><rect class="cls-2" x="147.2" y="106.44" width="38.12" height="38.12" rx="10" ry="10"/><rect class="cls-2" x="196.1" y="106.44" width="38.12" height="38.12" rx="10" ry="10"/><rect class="cls-2" x="245" y="106.44" width="38.12" height="38.12" rx="10" ry="10"/><rect class="cls-2" x="293.9" y="106.44" width="38.12" height="38.12" rx="10" ry="10"/><rect class="cls-2" x="342.8" y="106.44" width="38.12" height="38.12" rx="10" ry="10"/><rect class="cls-2" x="391.7" y="106.44" width="38.12" height="38.12" rx="10" ry="10"/><rect class="cls-2" x="440.6" y="106.44" width="38.12" height="38.12" rx="10" ry="10"/><rect class="cls-2" x="0.5" y="53.47" width="38.12" height="38.12" rx="10" ry="10"/><rect class="cls-2" x="49.4" y="53.47" width="38.12" height="38.12" rx="10" ry="10"/><rect class="cls-2" x="98.3" y="53.47" width="38.12" height="38.12" rx="10" ry="10"/><rect class="cls-2" x="147.2" y="53.47" width="38.12" height="38.12" rx="10" ry="10"/><rect class="cls-2" x="196.1" y="53.47" width="38.12" height="38.12" rx="10" ry="10"/><rect class="cls-2" x="245" y="53.47" width="38.12" height="38.12" rx="10" ry="10"/><rect class="cls-2" x="293.9" y="53.47" width="38.12" height="38.12" rx="10" ry="10"/><rect class="cls-2" x="342.8" y="53.47" width="38.12" height="38.12" rx="10" ry="10"/><rect class="cls-2" x="391.7" y="53.47" width="38.12" height="38.12" rx="10" ry="10"/><rect class="cls-2" x="440.6" y="53.47" width="38.12" height="38.12" rx="10" ry="10"/><rect class="cls-2" x="0.5" y="159.4" width="38.12" height="38.12" rx="10" ry="10"/><rect class="cls-2" x="49.4" y="159.4" width="38.12" height="38.12" rx="10" ry="10"/><rect class="cls-2" x="98.3" y="159.4" width="38.12" height="38.12" rx="10" ry="10"/><rect class="cls-2" x="147.2" y="159.4" width="38.12" height="38.12" rx="10" ry="10"/><rect class="cls-2" x="196.1" y="159.4" width="38.12" height="38.12" rx="10" ry="10"/><rect class="cls-2" x="245" y="159.4" width="38.12" height="38.12" rx="10" ry="10"/><rect class="cls-2" x="293.9" y="159.4" width="38.12" height="38.12" rx="10" ry="10"/><rect class="cls-2" x="342.8" y="159.4" width="38.12" height="38.12" rx="10" ry="10"/><rect class="cls-2" x="391.7" y="159.4" width="38.12" height="38.12" rx="10" ry="10"/><rect class="cls-2" x="440.6" y="159.4" width="38.12" height="38.12" rx="10" ry="10"/><rect class="cls-2" x="492.27" y="106.44" width="38.12" height="38.12" rx="10" ry="10"/><rect class="cls-2" x="541.17" y="106.44" width="38.12" height="38.12" rx="10" ry="10"/><rect class="cls-2" x="590.07" y="106.44" width="38.12" height="38.12" rx="10" ry="10"/><rect class="cls-2" x="638.97" y="106.44" width="38.12" height="38.12" rx="10" ry="10"/><rect class="cls-2" x="687.87" y="106.44" width="38.12" height="38.12" rx="10" ry="10"/><rect class="cls-2" x="736.77" y="106.44" width="38.12" height="38.12" rx="10" ry="10"/><rect class="cls-2" x="785.67" y="106.44" width="38.12" height="38.12" rx="10" ry="10"/><rect class="cls-2" x="834.57" y="106.44" width="38.12" height="38.12" rx="10" ry="10"/><rect class="cls-2" x="883.47" y="106.44" width="38.12" height="38.12" rx="10" ry="10"/><rect class="cls-2" x="932.37" y="106.44" width="38.12" height="38.12" rx="10" ry="10"/><rect class="cls-2" x="492.27" y="159.4" width="38.12" height="38.12" rx="10" ry="10"/><rect class="cls-2" x="541.17" y="159.4" width="38.12" height="38.12" rx="10" ry="10"/><rect class="cls-2" x="590.07" y="159.4" width="38.12" height="38.12" rx="10" ry="10"/><rect class="cls-2" x="638.97" y="159.4" width="38.12" height="38.12" rx="10" ry="10"/><rect class="cls-2" x="687.87" y="159.4" width="38.12" height="38.12" rx="10" ry="10"/><rect class="cls-2" x="736.77" y="159.4" width="38.12" height="38.12" rx="10" ry="10"/><rect class="cls-2" x="785.67" y="159.4" width="38.12" height="38.12" rx="10" ry="10"/><rect class="cls-2" x="834.57" y="159.4" width="38.12" height="38.12" rx="10" ry="10"/><rect class="cls-2" x="883.47" y="159.4" width="38.12" height="38.12" rx="10" ry="10"/><rect class="cls-2" x="932.37" y="159.4" width="38.12" height="38.12" rx="10" ry="10"/><rect class="cls-1" x="492.27" y="211.43" width="38.12" height="38.12" rx="10" ry="10"/><rect class="cls-1" x="541.17" y="211.43" width="38.12" height="38.12" rx="10" ry="10"/><rect class="cls-1" x="590.07" y="211.43" width="38.12" height="38.12" rx="10" ry="10"/><rect class="cls-1" x="638.97" y="211.43" width="38.12" height="38.12" rx="10" ry="10"/><rect class="cls-1" x="687.87" y="211.43" width="38.12" height="38.12" rx="10" ry="10"/><rect class="cls-1" x="736.77" y="211.43" width="38.12" height="38.12" rx="10" ry="10"/><rect class="cls-1" x="785.67" y="211.43" width="38.12" height="38.12" rx="10" ry="10"/><rect class="cls-1" x="834.57" y="211.43" width="38.12" height="38.12" rx="10" ry="10"/><rect class="cls-1" x="883.47" y="211.43" width="38.12" height="38.12" rx="10" ry="10"/><rect class="cls-1" x="932.37" y="211.43" width="38.12" height="38.12" rx="10" ry="10"/><rect class="cls-1" x="492.27" y="264.4" width="38.12" height="38.12" rx="10" ry="10"/><rect class="cls-1" x="541.17" y="264.4" width="38.12" height="38.12" rx="10" ry="10"/><rect class="cls-1" x="590.07" y="264.4" width="38.12" height="38.12" rx="10" ry="10"/><rect class="cls-1" x="638.97" y="264.4" width="38.12" height="38.12" rx="10" ry="10"/><rect class="cls-1" x="687.87" y="264.4" width="38.12" height="38.12" rx="10" ry="10"/><rect class="cls-1" x="736.77" y="264.4" width="38.12" height="38.12" rx="10" ry="10"/><rect class="cls-1" x="785.67" y="264.4" width="38.12" height="38.12" rx="10" ry="10"/><rect class="cls-1" x="834.57" y="264.4" width="38.12" height="38.12" rx="10" ry="10"/><rect class="cls-1" x="883.47" y="264.4" width="38.12" height="38.12" rx="10" ry="10"/><rect class="cls-1" x="932.37" y="264.4" width="38.12" height="38.12" rx="10" ry="10"/><rect class="cls-1" x="492.27" y="317.36" width="38.12" height="38.12" rx="10" ry="10"/><rect class="cls-1" x="541.17" y="317.36" width="38.12" height="38.12" rx="10" ry="10"/><rect class="cls-1" x="590.07" y="317.36" width="38.12" height="38.12" rx="10" ry="10"/><rect class="cls-1" x="638.97" y="317.36" width="38.12" height="38.12" rx="10" ry="10"/><rect class="cls-1" x="687.87" y="317.36" width="38.12" height="38.12" rx="10" ry="10"/><rect class="cls-1" x="736.77" y="317.36" width="38.12" height="38.12" rx="10" ry="10"/><rect class="cls-1" x="785.67" y="317.36" width="38.12" height="38.12" rx="10" ry="10"/><rect class="cls-1" x="834.57" y="317.36" width="38.12" height="38.12" rx="10" ry="10"/><rect class="cls-1" x="883.47" y="317.36" width="38.12" height="38.12" rx="10" ry="10"/><rect class="cls-1" x="932.37" y="317.36" width="38.12" height="38.12" rx="10" ry="10"/><rect class="cls-1" x="492.27" y="370.33" width="38.12" height="38.12" rx="10" ry="10"/><rect class="cls-1" x="541.17" y="370.33" width="38.12" height="38.12" rx="10" ry="10"/><rect class="cls-1" x="590.07" y="370.33" width="38.12" height="38.12" rx="10" ry="10"/><rect class="cls-1" x="638.97" y="370.33" width="38.12" height="38.12" rx="10" ry="10"/><rect class="cls-1" x="687.87" y="370.33" width="38.12" height="38.12" rx="10" ry="10"/><rect class="cls-1" x="736.77" y="370.33" width="38.12" height="38.12" rx="10" ry="10"/><rect class="cls-1" x="785.67" y="370.33" width="38.12" height="38.12" rx="10" ry="10"/><rect class="cls-1" x="834.57" y="370.33" width="38.12" height="38.12" rx="10" ry="10"/><rect class="cls-1" x="883.47" y="370.33" width="38.12" height="38.12" rx="10" ry="10"/><rect class="cls-1" x="932.37" y="370.33" width="38.12" height="38.12" rx="10" ry="10"/><rect class="cls-1" x="492.27" y="423.3" width="38.12" height="38.12" rx="10" ry="10"/><rect class="cls-1" x="541.17" y="423.3" width="38.12" height="38.12" rx="10" ry="10"/><rect class="cls-1" x="590.07" y="423.3" width="38.12" height="38.12" rx="10" ry="10"/><rect class="cls-1" x="638.97" y="423.3" width="38.12" height="38.12" rx="10" ry="10"/><rect class="cls-1" x="687.87" y="423.3" width="38.12" height="38.12" rx="10" ry="10"/><rect class="cls-1" x="736.77" y="423.3" width="38.12" height="38.12" rx="10" ry="10"/><rect class="cls-1" x="785.67" y="423.3" width="38.12" height="38.12" rx="10" ry="10"/><rect class="cls-1" x="834.57" y="423.3" width="38.12" height="38.12" rx="10" ry="10"/><rect class="cls-1" x="883.47" y="423.3" width="38.12" height="38.12" rx="10" ry="10"/><rect class="cls-1" x="932.37" y="423.3" width="38.12" height="38.12" rx="10" ry="10"/><rect class="cls-1" x="492.27" y="476.27" width="38.12" height="38.12" rx="10" ry="10"/><rect class="cls-1" x="541.17" y="476.27" width="38.12" height="38.12" rx="10" ry="10"/><rect class="cls-1" x="590.07" y="476.27" width="38.12" height="38.12" rx="10" ry="10"/><rect class="cls-1" x="638.97" y="476.27" width="38.12" height="38.12" rx="10" ry="10"/><rect class="cls-1" x="687.87" y="476.27" width="38.12" height="38.12" rx="10" ry="10"/><rect class="cls-1" x="736.77" y="476.27" width="38.12" height="38.12" rx="10" ry="10"/><rect class="cls-1" x="785.67" y="476.27" width="38.12" height="38.12" rx="10" ry="10"/><rect class="cls-1" x="834.57" y="476.27" width="38.12" height="38.12" rx="10" ry="10"/><rect class="cls-1" x="883.47" y="476.27" width="38.12" height="38.12" rx="10" ry="10"/><rect class="cls-1" x="932.37" y="476.27" width="38.12" height="38.12" rx="10" ry="10"/><rect class="cls-1" x="492.27" y="529.23" width="38.12" height="38.12" rx="10" ry="10"/><rect class="cls-1" x="541.17" y="529.23" width="38.12" height="38.12" rx="10" ry="10"/><rect class="cls-1" x="590.07" y="529.23" width="38.12" height="38.12" rx="10" ry="10"/><rect class="cls-1" x="638.97" y="529.23" width="38.12" height="38.12" rx="10" ry="10"/><rect class="cls-1" x="687.87" y="529.23" width="38.12" height="38.12" rx="10" ry="10"/><rect class="cls-1" x="736.77" y="529.23" width="38.12" height="38.12" rx="10" ry="10"/><rect class="cls-1" x="785.67" y="529.23" width="38.12" height="38.12" rx="10" ry="10"/><rect class="cls-1" x="834.57" y="529.23" width="38.12" height="38.12" rx="10" ry="10"/><rect class="cls-1" x="883.47" y="529.23" width="38.12" height="38.12" rx="10" ry="10"/><rect class="cls-1" x="932.37" y="529.23" width="38.12" height="38.12" rx="10" ry="10"/><rect class="cls-1" x="492.27" y="582.2" width="38.12" height="38.12" rx="10" ry="10"/><rect class="cls-1" x="541.17" y="582.2" width="38.12" height="38.12" rx="10" ry="10"/><rect class="cls-1" x="590.07" y="582.2" width="38.12" height="38.12" rx="10" ry="10"/><rect class="cls-1" x="638.97" y="582.2" width="38.12" height="38.12" rx="10" ry="10"/><rect class="cls-1" x="687.87" y="582.2" width="38.12" height="38.12" rx="10" ry="10"/><rect class="cls-1" x="736.77" y="582.2" width="38.12" height="38.12" rx="10" ry="10"/><rect class="cls-1" x="785.67" y="582.2" width="38.12" height="38.12" rx="10" ry="10"/><rect class="cls-1" x="834.57" y="582.2" width="38.12" height="38.12" rx="10" ry="10"/><rect class="cls-1" x="883.47" y="582.2" width="38.12" height="38.12" rx="10" ry="10"/><rect class="cls-1" x="932.37" y="582.2" width="38.12" height="38.12" rx="10" ry="10"/><rect class="cls-1" x="492.27" y="635.17" width="38.12" height="38.12" rx="10" ry="10"/><rect class="cls-1" x="541.17" y="635.17" width="38.12" height="38.12" rx="10" ry="10"/><rect class="cls-1" x="590.07" y="635.17" width="38.12" height="38.12" rx="10" ry="10"/><rect class="cls-1" x="638.97" y="635.17" width="38.12" height="38.12" rx="10" ry="10"/><rect class="cls-1" x="687.87" y="635.17" width="38.12" height="38.12" rx="10" ry="10"/><rect class="cls-1" x="736.77" y="635.17" width="38.12" height="38.12" rx="10" ry="10"/><rect class="cls-1" x="785.67" y="635.17" width="38.12" height="38.12" rx="10" ry="10"/><rect class="cls-1" x="834.57" y="635.17" width="38.12" height="38.12" rx="10" ry="10"/><rect class="cls-1" x="883.47" y="635.17" width="38.12" height="38.12" rx="10" ry="10"/><rect class="cls-1" x="932.37" y="635.17" width="38.12" height="38.12" rx="10" ry="10"/><rect class="cls-1" x="492.27" y="688.14" width="38.12" height="38.12" rx="10" ry="10"/><rect class="cls-1" x="541.17" y="688.14" width="38.12" height="38.12" rx="10" ry="10"/><rect class="cls-1" x="590.07" y="688.14" width="38.12" height="38.12" rx="10" ry="10"/><rect class="cls-1" x="638.97" y="688.14" width="38.12" height="38.12" rx="10" ry="10"/><rect class="cls-1" x="687.87" y="688.14" width="38.12" height="38.12" rx="10" ry="10"/><rect class="cls-1" x="736.77" y="688.14" width="38.12" height="38.12" rx="10" ry="10"/><rect class="cls-1" x="785.67" y="688.14" width="38.12" height="38.12" rx="10" ry="10"/><rect class="cls-1" x="834.57" y="688.14" width="38.12" height="38.12" rx="10" ry="10"/><rect class="cls-1" x="883.47" y="688.14" width="38.12" height="38.12" rx="10" ry="10"/><rect class="cls-1" x="932.37" y="688.14" width="38.12" height="38.12" rx="10" ry="10"/></g></g></svg>