<?xml version="1.0" encoding="utf-8"?>
<!-- Generator: Adobe Illustrator 16.0.0, SVG Export Plug-In . SVG Version: 6.00 Build 0)  -->
<!DOCTYPE svg PUBLIC "-//W3C//DTD SVG 1.1//EN" "http://www.w3.org/Graphics/SVG/1.1/DTD/svg11.dtd">
<svg version="1.1" id="Layer_1" xmlns="http://www.w3.org/2000/svg" xmlns:xlink="http://www.w3.org/1999/xlink" x="0px" y="0px"
	 width="50.75px" height="50px" viewBox="0 0 50.75 50" enable-background="new 0 0 50.75 50" xml:space="preserve">
<g id="Facebook_5_">
	<path fill="#43619C" d="M25.236,1.653C12.119,1.653,1.5,12.272,1.5,25.39c0,13.118,10.619,23.736,23.736,23.736
		c13.118,0,23.736-10.618,23.736-23.736C48.973,12.272,38.354,1.653,25.236,1.653z"/>
	<path fill="#43619C" d="M23.988,24.124"/>
	<path fill="none" d="M26.803,20.313c0.005-1.665,1.682-1.49,1.682-1.49h2.062v-2.998c-1.792-0.177-3.562-0.085-3.562-0.085
		c-3.911,0.46-3.924,4.193-3.924,4.193l0.014,2.639h-3.146v3.748h3.146v8.745h3.725v-8.745h2.998l0.438-3.748h-3.431
		C26.803,22.571,26.798,21.978,26.803,20.313z M26.798,22.571L26.798,22.571H26.8H26.798z"/>
</g>
</svg>
