<?xml version="1.0" encoding="utf-8"?>
<!-- Generator: Adobe Illustrator 16.0.0, SVG Export Plug-In . SVG Version: 6.00 Build 0)  -->
<!DOCTYPE svg PUBLIC "-//W3C//DTD SVG 1.1//EN" "http://www.w3.org/Graphics/SVG/1.1/DTD/svg11.dtd">
<svg version="1.1" id="Layer_1" xmlns="http://www.w3.org/2000/svg" xmlns:xlink="http://www.w3.org/1999/xlink" x="0px" y="0px"
	 width="50px" height="38.75px" viewBox="0 0 50 38.75" enable-background="new 0 0 50 38.75" xml:space="preserve">
<title>08</title>
<path d="M13.336,26.216h1.872l7.48,6.832c0.897,0.819,2.289,0.757,3.108-0.14c0.37-0.406,0.576-0.936,0.576-1.484V8.576
	c0-1.215-0.985-2.2-2.2-2.2c-0.549,0-1.079,0.206-1.484,0.576l-7.48,6.832h-1.872c-2.987,0.004-5.404,2.429-5.4,5.416l0,0v1.6
	c-0.007,2.985,2.407,5.409,5.392,5.416C13.331,26.216,13.333,26.216,13.336,26.216z M10.736,19.2c0.002-1.435,1.165-2.598,2.6-2.6
	h2.4c0.35,0,0.687-0.132,0.944-0.368l6.876-6.28v20.108l-6.864-6.281c-0.257-0.236-0.594-0.367-0.944-0.368h-2.4
	c-1.435-0.002-2.598-1.165-2.6-2.6L10.736,19.2z"/>
<path d="M41.656,13.776c-0.547-0.546-1.434-0.547-1.98,0l0,0l-4.244,4.244l-4.244-4.244c-0.552-0.546-1.443-0.542-1.989,0.01
	c-0.547,0.552-0.542,1.443,0.01,1.99L33.452,20l-4.244,4.244c-0.547,0.547-0.547,1.434,0,1.98c0.547,0.546,1.433,0.546,1.979,0
	l4.244-4.245l4.244,4.245c0.547,0.546,1.434,0.546,1.98,0c0.547-0.547,0.547-1.434,0-1.98l0,0L37.4,20l4.256-4.244
	C42.203,15.209,42.203,14.323,41.656,13.776L41.656,13.776z"/>
</svg>
