<?xml version="1.0" encoding="utf-8"?>
<!-- Generator: Adobe Illustrator 16.0.0, SVG Export Plug-In . SVG Version: 6.00 Build 0)  -->
<!DOCTYPE svg PUBLIC "-//W3C//DTD SVG 1.1//EN" "http://www.w3.org/Graphics/SVG/1.1/DTD/svg11.dtd">
<svg version="1.1" xmlns="http://www.w3.org/2000/svg" xmlns:xlink="http://www.w3.org/1999/xlink" x="0px" y="0px" width="50px"
	 height="50px" viewBox="0 0 50 50" enable-background="new 0 0 50 50" xml:space="preserve">
<g id="Layer_2">
	<polygon fill="#FFFFFF" points="8.24,22.601 9.32,21.48 25,37.159 40.68,21.48 42.062,22.63 25,39.399 	"/>
	<polygon fill="#FFFFFF" points="8.24,11.721 9.32,10.601 25,26.279 40.68,10.601 42.062,11.75 25,28.52 	"/>
</g>
<g id="Layer_1">
	<g>
		<g>
			<path d="M41.76,11.721L25,28.52L8.24,11.721l1.08-1.12l15.119,15.12L25,26.279l0.56-0.559l15.12-15.12L41.76,11.721
				 M42.92,11.721l-2.24-2.24L25,25.16L9.32,9.48l-2.24,2.24L25,29.641L42.92,11.721L42.92,11.721z"/>
		</g>
		<g>
			<path d="M41.76,22.601L25,39.4l-16.76-16.8l1.119-1.12L24.439,36.6L25,37.16l0.56-0.561L40.68,21.48L41.76,22.601 M42.92,22.601
				l-2.24-2.24L25,36.04L9.32,20.36l-2.24,2.24L25,40.52L42.92,22.601L42.92,22.601z"/>
		</g>
	</g>
</g>
</svg>
