<?xml version="1.0" encoding="utf-8"?>
<!-- Generator: Adobe Illustrator 16.0.0, SVG Export Plug-In . SVG Version: 6.00 Build 0)  -->
<!DOCTYPE svg PUBLIC "-//W3C//DTD SVG 1.1//EN" "http://www.w3.org/Graphics/SVG/1.1/DTD/svg11.dtd">
<svg version="1.1" id="Layer_1" xmlns="http://www.w3.org/2000/svg" xmlns:xlink="http://www.w3.org/1999/xlink" x="0px" y="0px"
	 width="50.75px" height="50px" viewBox="0 0 50.75 50" enable-background="new 0 0 50.75 50" xml:space="preserve">
<g id="Twitter_6_">
	<circle fill="#24A9E6" cx="25.375" cy="25" r="24"/>
	<path id="Twitter_2_" fill="#FFFFFF" d="M36.301,15.4c-0.947,0.568-1.958,1.011-3.095,1.2c-0.884-0.947-2.146-1.579-3.536-1.579
		c-2.651,0-4.864,2.21-4.864,4.989c0,0.378,0.064,0.758,0.127,1.137c-4.042-0.19-7.58-2.21-9.979-5.18
		c-0.442,0.758-0.632,1.579-0.632,2.527c0,1.705,0.885,3.221,2.147,4.168c-0.82,0-1.516-0.252-2.21-0.631v0.062
		c0,2.401,1.642,4.423,3.916,4.864c-0.378,0.125-0.821,0.188-1.262,0.188c-0.317,0-0.631,0-0.885-0.063
		c0.631,1.96,2.4,3.412,4.548,3.476c-1.643,1.326-3.727,2.147-6,2.147c-0.378,0-0.758,0-1.137-0.063
		c2.147,1.39,4.673,2.21,7.453,2.21c8.905,0,13.832-7.578,13.832-14.147c0-0.189,0-0.442,0-0.632
		c0.947-0.694,1.769-1.579,2.399-2.59c-0.885,0.38-1.831,0.695-2.779,0.758C35.164,17.484,35.923,16.538,36.301,15.4z"/>
</g>
</svg>
