<?xml version="1.0" encoding="utf-8"?>
<!-- Generator: Adobe Illustrator 16.0.0, SVG Export Plug-In . SVG Version: 6.00 Build 0)  -->
<!DOCTYPE svg PUBLIC "-//W3C//DTD SVG 1.1//EN" "http://www.w3.org/Graphics/SVG/1.1/DTD/svg11.dtd">
<svg version="1.1" id="Layer_1" xmlns="http://www.w3.org/2000/svg" xmlns:xlink="http://www.w3.org/1999/xlink" x="0px" y="0px"
	 width="50.75px" height="50px" viewBox="0 0 50.75 50" enable-background="new 0 0 50.75 50" xml:space="preserve">
<g transform="translate(0,-952.36218)">
	<path fill="#41C452" d="M25.375,953.362c-13.266,0-24,10.729-24,24c0,5.007,1.526,9.637,4.239,13.613
		c0.204,0.303,0.258,0.684,0.149,1.031l-2.438,8.156l7.987-2.755c0.346-0.118,0.727-0.069,1.031,0.13
		c3.741,2.426,8.221,3.824,13.031,3.824c13.271,0,24-10.729,24-24C49.375,964.092,38.646,953.362,25.375,953.362z M15.552,963.825
		l4.368,7.219l-1.819,1.8c-0.381,0.385-0.458,0.976-0.188,1.444c2.775,4.806,6.064,8.546,10.669,10.574
		c0.452,0.201,0.979,0.104,1.331-0.243l1.931-1.93l7.051,4.406c-0.781,1.754-1.798,2.799-2.965,3.411
		c-1.348,0.706-2.994,0.838-4.875,0.449c-3.758-0.78-8.298-3.733-11.998-7.517c-3.7-3.786-6.564-8.39-7.293-12.133
		c-0.366-1.872-0.204-3.484,0.487-4.763C12.846,965.442,13.857,964.501,15.552,963.825z"/>
</g>
</svg>
